<svg width="1024" height="1024" viewBox="0 0 1024 1024" fill="none" xmlns="http://www.w3.org/2000/svg">
<rect width="1024" height="1024" fill="white"/>
<path d="M490.653 109H535.934L568.278 112.87L598.034 118.03L630.377 127.061L656.252 136.091L678.246 145.122L709.295 160.603L739.051 178.663L759.751 194.144L772.689 204.465L785.626 216.075L795.976 225.106L808.913 238.006L817.969 248.327L834.788 268.968L855.488 299.929L868.425 321.861L883.95 354.112L894.3 381.204L904.65 417.325L909.825 441.837L913.706 467.638L915 483.119V542.462L911.119 573.423L903.356 610.835L894.3 641.796L886.538 662.437L872.307 693.399L858.075 719.2L839.963 746.292L828.319 761.772L814.088 778.543L798.563 795.314L786.92 806.925L776.57 815.955L759.751 830.146L737.758 845.627L713.177 861.107L688.595 874.008L654.958 888.199L623.908 898.519L592.859 906.26L561.809 911.42L521.703 914H498.416L462.191 911.42L425.966 904.97L391.035 895.939L356.104 883.038L336.698 874.008L315.998 863.687L292.711 849.497L274.599 836.596L256.486 822.405L237.08 805.635L216.38 784.994V782.413H213.793L202.149 768.223L186.624 748.872L173.687 729.521L162.043 710.17L146.518 680.498L134.875 653.407L123.231 617.285L116.762 590.194L111.587 557.942L109 529.561V496.019L111.587 467.638L116.762 432.806L124.525 400.554L136.169 365.723L149.106 336.051L160.75 314.12L174.981 290.899L190.506 268.968L202.149 254.777L217.674 236.716L242.255 212.205L256.486 200.595L260.368 199.304V196.724L283.655 179.954L301.767 168.343L328.936 152.862L359.986 138.671L406.56 123.191L441.491 115.45L476.422 110.29L490.653 109Z" fill="#01ACF1"/>
<path d="M490.653 109H535.934L568.278 112.87L598.034 118.03L630.377 127.061L656.252 136.091L678.246 145.122L709.295 160.603L739.051 178.663L759.751 194.144L772.689 204.465L785.626 216.075L795.976 225.106L808.913 238.006L817.97 248.327L834.788 268.968L855.488 299.929L868.425 321.861L883.95 354.112L894.3 381.204L904.65 417.325L909.825 441.837L913.706 467.638L915 483.119V542.462L911.119 573.423L903.356 610.835L894.3 641.797L886.538 662.438L872.307 693.399L858.075 719.2L839.963 746.292L828.319 761.772L814.088 778.543L798.563 795.314L786.92 806.925L776.57 815.955L759.751 830.146L737.758 845.627L713.177 861.107L688.595 874.008L654.958 888.199L623.908 898.519L592.859 906.26L561.809 911.42L521.703 914H498.416L462.191 911.42L425.966 904.97L391.035 895.939L356.104 883.038L336.698 874.008L315.998 863.688L292.711 849.497L274.599 836.596L256.486 822.405L237.08 805.635L216.38 784.994V782.413H213.793L202.149 768.223L186.624 748.872L173.687 729.521L162.043 710.17L146.518 680.498L134.875 653.407L123.231 617.285L116.762 590.194L111.587 557.942L109 529.561V496.019L111.587 467.638L116.762 432.806L124.525 400.555L136.169 365.723L149.106 336.051L160.75 314.12L174.981 290.899L190.506 268.968L202.149 254.777L217.674 236.716L242.255 212.205L256.486 200.595L260.368 199.304V196.724L283.655 179.954L301.767 168.343L328.936 152.862L359.986 138.671L406.56 123.191L441.491 115.45L476.422 110.29L490.653 109Z" fill="url(#paint0_linear_726_227)"/>
<path d="M182.302 415H207.04L209.644 416.293V442.16L218.758 436.987L233.081 427.933L253.913 420.173L266.933 417.587H286.463L307.295 421.467L322.919 427.933L338.544 436.987L347.658 444.747L360.678 461.56L369.792 479.667L375 501.653V524.933L369.792 545.627L363.282 559.853L355.47 571.493L343.752 584.427L330.732 594.773L315.107 602.533L298.181 607.707L291.671 609H264.329L243.497 603.827L222.664 593.48L209.644 583.133L197.926 568.907L187.51 549.507L182.302 530.107L181 517.173V416.293L182.302 415Z" fill="#FDFDFD"/>
<path d="M389.261 417H410.041L432.12 422.208L445.108 427.416L463.29 439.134L469.784 444.342V446.946H472.382L481.473 459.966L485.369 458.664L494.461 446.946L503.552 437.832L517.838 428.718L532.124 422.208L545.112 418.302L554.203 417H573.685L594.465 420.906L612.647 428.718L626.934 437.832L638.622 448.248L650.311 465.174L656.805 479.497L660.701 493.819L662 502.933V608.396L660.701 609.698L636.025 611L634.726 609.698L633.427 504.235L628.232 488.611L620.44 474.289L611.349 462.57L597.062 453.456L581.477 446.946L576.282 445.644H552.905L538.618 450.852L523.033 459.966L511.344 471.685L502.253 487.309L498.357 500.329L497.058 608.396L495.759 609.698H471.083L469.784 608.396L468.485 506.839L465.888 495.121L456.797 476.893L446.407 463.872L436.017 456.06L420.432 448.248L403.548 444.342L387.963 445.644L373.676 450.852L365.884 453.456L356.793 441.738L349 433.926V430.02L364.585 423.51L380.17 418.302L389.261 417Z" fill="#FDFDFD"/>
<path d="M269.585 445H289.113L308.642 451.402L322.962 460.364L333.377 470.607L343.792 488.533L349 505.178V520.542L345.094 535.907L335.981 552.551L325.566 564.075L307.34 575.598L294.321 580.72L287.811 582H273.491L257.868 578.159L246.151 573.037L238.34 567.916L231.83 562.794L220.113 547.43L212.302 530.785L211 525.664V500.056L216.208 484.692L224.019 471.888L237.038 459.084L255.264 448.841L269.585 445Z" fill="url(#paint1_linear_726_227)"/>
<path d="M677.585 417L690.508 418.293L711.185 423.467L731.862 433.813L748.662 448.04L759 460.973L762.877 457.093L774.508 442.867L790.015 431.227L806.815 423.467L818.446 419.587L837.831 417L841.708 419.587V442.867L839.123 445.453L822.323 448.04L804.231 457.093L791.308 467.44L782.262 480.373L775.8 497.187L774.508 502.36V524.347L779.677 539.867L788.723 555.387L797.769 565.733L814.569 576.08L830.077 581.253L840.415 583.84L843 590.307L841.708 608.413L840.415 609.707L823.615 608.413L802.938 601.947L787.431 594.187L774.508 583.84L765.462 573.493L761.585 565.733L757.708 567.027L747.369 579.96L735.738 590.307L721.523 599.36L703.431 605.827L678.877 611L676.292 609.707L675 586.427L678.877 582.547L696.969 578.667L715.062 569.613L729.277 556.68L738.323 542.453L743.492 528.227L744.785 520.467V506.24L739.615 488.133L731.862 473.907L721.523 462.267L707.308 453.213L690.508 446.747L677.585 445.453L676.292 444.16V418.293L677.585 417Z" fill="#FDFDFD"/>
<defs>
<linearGradient id="paint0_linear_726_227" x1="316" y1="431" x2="747.915" y2="993.413" gradientUnits="userSpaceOnUse">
<stop offset="0.239909" stop-color="#2E1B9F"/>
<stop offset="0.836538" stop-color="#9B7BFF"/>
</linearGradient>
<linearGradient id="paint1_linear_726_227" x1="280" y1="445" x2="280" y2="582" gradientUnits="userSpaceOnUse">
<stop stop-color="#2E1B9F"/>
</linearGradient>
</defs>
</svg>
