<svg xmlns="http://www.w3.org/2000/svg" width="1024" height="1024" viewBox="0 0 1024 1024">
  <rect width="1024" height="1024" rx="220" fill="#f45100"/>
  <path d="M101 733c130-107 267-124 412-51 141 71 284 59 426-37" fill="none" stroke="#ffd166" stroke-width="58" stroke-linecap="round" opacity=".34"/>
  <path d="M114 798c167-87 313-95 438-23 109 63 230 67 363 12" fill="none" stroke="#1f2937" stroke-width="42" stroke-linecap="round" opacity=".38"/>
  <circle cx="314" cy="709" r="111" fill="none" stroke="#fff" stroke-width="45"/>
  <circle cx="704" cy="709" r="111" fill="none" stroke="#fff" stroke-width="45"/>
  <path d="M321 704h135l103-150 82 150h63" fill="none" stroke="#fff" stroke-width="44" stroke-linecap="round" stroke-linejoin="round"/>
  <path d="M456 704l-42-173 154 23" fill="none" stroke="#fff" stroke-width="44" stroke-linecap="round" stroke-linejoin="round"/>
  <path d="M583 375l74 69 98 10" fill="none" stroke="#fff" stroke-width="46" stroke-linecap="round" stroke-linejoin="round"/>
  <path d="M569 385l-66 104 42 85" fill="none" stroke="#fff" stroke-width="50" stroke-linecap="round" stroke-linejoin="round"/>
  <circle cx="610" cy="300" r="58" fill="#fff"/>
  <path d="M489 318c45-66 106-95 182-87" fill="none" stroke="#1f2937" stroke-width="35" stroke-linecap="round" opacity=".42"/>
  <path d="M206 372h179" stroke="#fff" stroke-width="42" stroke-linecap="round" opacity=".9"/>
  <path d="M164 463h167" stroke="#fff" stroke-width="34" stroke-linecap="round" opacity=".72"/>
  <path d="M207 548h105" stroke="#fff" stroke-width="28" stroke-linecap="round" opacity=".58"/>
</svg>
